<?xml version="1.0" standalone="no"?>
<!DOCTYPE svg PUBLIC "-//W3C//DTD SVG 20010904//EN"
 "http://www.w3.org/TR/2001/REC-SVG-20010904/DTD/svg10.dtd">
<svg version="1.0" xmlns="http://www.w3.org/2000/svg"
 width="512.000000pt" height="512.000000pt" viewBox="0 0 512.000000 512.000000"
 preserveAspectRatio="xMidYMid meet">
<metadata>
Created by potrace 1.16, written by Peter Selinger 2001-2019
</metadata>
<g transform="translate(0.000000,512.000000) scale(0.100000,-0.100000)"
fill="#000000" stroke="none">
<path d="M2351 3898 c-20 -52 -75 -207 -116 -328 -24 -69 -46 -134 -51 -145
-7 -20 -7 -20 15 -1 12 11 31 35 43 54 25 40 80 67 106 53 59 -33 194 -244
311 -486 81 -167 233 -480 326 -670 49 -99 88 -185 88 -192 0 -7 4 -10 8 -7 4
2 9 0 11 -5 3 -7 200 -111 212 -111 2 0 -62 132 -144 293 -82 160 -194 389
-249 509 -55 119 -128 272 -162 340 -64 128 -353 669 -375 702 -13 19 -14 18
-23 -6z"/>
<path d="M2203 2787 c-33 -51 -114 -166 -179 -257 -72 -101 -122 -182 -130
-210 -15 -50 -17 -51 41 22 52 65 163 181 191 199 64 39 108 20 179 -76 17
-22 32 -42 35 -45 7 -6 125 -190 187 -290 25 -41 76 -122 113 -180 38 -58 106
-168 152 -245 146 -243 262 -426 296 -465 18 -21 57 -51 88 -66 47 -23 62 -26
110 -20 31 3 81 19 112 34 l56 27 -85 6 c-46 3 -91 8 -99 12 -8 4 -126 193
-262 420 -393 655 -729 1211 -736 1219 -4 4 -35 -34 -69 -85z"/>
<path d="M1591 2774 c0 -11 3 -14 6 -6 3 7 2 16 -1 19 -3 4 -6 -2 -5 -13z"/>
<path d="M1562 2500 c0 -14 2 -19 5 -12 2 6 2 18 0 25 -3 6 -5 1 -5 -13z"/>
<path d="M1551 2394 c0 -11 3 -14 6 -6 3 7 2 16 -1 19 -3 4 -6 -2 -5 -13z"/>
<path d="M1521 2114 c0 -11 3 -14 6 -6 3 7 2 16 -1 19 -3 4 -6 -2 -5 -13z"/>
<path d="M1511 2014 c0 -11 3 -14 6 -6 3 7 2 16 -1 19 -3 4 -6 -2 -5 -13z"/>
<path d="M1481 1704 c0 -11 3 -14 6 -6 3 7 2 16 -1 19 -3 4 -6 -2 -5 -13z"/>
<path d="M1471 1594 c0 -11 3 -14 6 -6 3 7 2 16 -1 19 -3 4 -6 -2 -5 -13z"/>
<path d="M1462 1480 c0 -14 2 -19 5 -12 2 6 2 18 0 25 -3 6 -5 1 -5 -13z"/>
<path d="M1451 1374 c0 -11 3 -14 6 -6 3 7 2 16 -1 19 -3 4 -6 -2 -5 -13z"/>
<path d="M1490 1221 l-35 -6 45 -36 c88 -72 105 -74 465 -71 427 4 488 12 618
83 l48 26 -128 6 c-158 8 -965 7 -1013 -2z"/>
</g>
</svg>